<mxfile host="app.diagrams.net" modified="2022-07-30T07:33:55.830Z" agent="5.0 (Macintosh; Intel Mac OS X 10_15_7) AppleWebKit/537.36 (KHTML, like Gecko) Chrome/103.0.0.0 Safari/537.36" etag="cBvbBd7X1aoWfFJHtYQ7" version="20.1.1" type="github">
  <diagram id="9TjPwVKUTpBeyKXtW_Yz" name="Page-1">
    <mxGraphModel dx="1186" dy="796" grid="0" gridSize="10" guides="1" tooltips="1" connect="1" arrows="1" fold="1" page="1" pageScale="1" pageWidth="3300" pageHeight="4681" math="0" shadow="0">
      <root>
        <mxCell id="0" />
        <mxCell id="1" parent="0" />
        <mxCell id="mTPiJXDfDGUkt82jH48M-4" style="edgeStyle=orthogonalEdgeStyle;rounded=0;orthogonalLoop=1;jettySize=auto;html=1;entryX=0;entryY=0.5;entryDx=0;entryDy=0;" edge="1" parent="1" source="mTPiJXDfDGUkt82jH48M-1" target="mTPiJXDfDGUkt82jH48M-2">
          <mxGeometry relative="1" as="geometry" />
        </mxCell>
        <mxCell id="mTPiJXDfDGUkt82jH48M-5" style="edgeStyle=orthogonalEdgeStyle;rounded=0;orthogonalLoop=1;jettySize=auto;html=1;entryX=0;entryY=0.5;entryDx=0;entryDy=0;" edge="1" parent="1" source="mTPiJXDfDGUkt82jH48M-1" target="mTPiJXDfDGUkt82jH48M-3">
          <mxGeometry relative="1" as="geometry" />
        </mxCell>
        <mxCell id="mTPiJXDfDGUkt82jH48M-1" value="服务A" style="rounded=1;whiteSpace=wrap;html=1;fillColor=default;strokeColor=default;" vertex="1" parent="1">
          <mxGeometry x="326" y="308" width="120" height="60" as="geometry" />
        </mxCell>
        <mxCell id="mTPiJXDfDGUkt82jH48M-2" value="服务B&amp;nbsp; 老版本" style="rounded=1;whiteSpace=wrap;html=1;strokeColor=default;fillColor=default;" vertex="1" parent="1">
          <mxGeometry x="576" y="238" width="120" height="60" as="geometry" />
        </mxCell>
        <mxCell id="mTPiJXDfDGUkt82jH48M-3" value="服务B&amp;nbsp; 新版本" style="rounded=1;whiteSpace=wrap;html=1;strokeColor=default;fillColor=default;" vertex="1" parent="1">
          <mxGeometry x="576" y="378" width="120" height="60" as="geometry" />
        </mxCell>
      </root>
    </mxGraphModel>
  </diagram>
</mxfile>
